<svg xmlns="http://www.w3.org/2000/svg" width="64" height="64" viewBox="0 0 64 64">
  <g transform="translate(11.364 48.183) scale(0.029396 -0.029396)">
    <path d="M221.41494627296925 241.3881298750639 1152.8968115150928 988.7340494990349Q1203.6565543562174 1029.520389020443 1234.2763370722532 1067.2466927319765Q1264.896119788289 1104.97299644351 1279.055988766253 1142.5592789947987Q1293.215857744217 1180.1455615460873 1293.4958512336016 1219.0918799042702Q1294.0558382123709 1260.42557130754 1278.2024698853493 1289.2325358241796Q1262.3491015583277 1318.0395003408194 1246.689049474895 1343.7064355611801Q1231.0289973914623 1369.3733707815409 1231.0289973914623 1399.9603857547045Q1231.308990880847 1441.0280778110027 1261.376617833972 1472.1555656045675Q1291.444244787097 1503.2830533981323 1340.712555333972 1503.2830533981323Q1397.407242834568 1503.2830533981323 1433.881158851087 1460.5292334109545Q1470.3550748676062 1417.7754134237766 1470.3550748676062 1339.1078678518534Q1470.3550748676062 1264.3476204574108 1443.3880338519812 1196.7739689275622Q1416.4209928363562 1129.2003173977137 1357.613670244813 1061.6332763805985Q1298.8063476532698 994.0662353634834 1201.7121891230345 917.332486987114L289.377382799983 187.1869417130947Q214.53738605976105 127.4271174967289 173.5707967057824 75.1740909665823Q132.60420735180378 22.9210644364357 116.22429931163788 -25.531876645982265Q99.84439127147198 -73.98481772840023 99.28440429270267 -123.57102704048157Q99.00441080331802 -164.25122398138046 116.50447183847427 -192.4581152573228Q134.00453287363052 -220.6650065332651 151.30458170175552 -245.88535077124834Q168.60463052988052 -271.10569500923157 168.32463704049587 -303.99954429268837Q168.04464355111122 -344.2271907776594 137.67048746347427 -373.02787844091654Q107.29633137583733 -401.82856610417366 62.41508463025093 -401.82856610417366Q8.160532221198082 -401.82856610417366 -28.993617355823517 -360.49470379948616Q-66.14776693284512 -319.16084149479866 -65.58777995407581 -229.49323895573616Q-65.02779297530651 -104.98732423782349 3.5459928289055824 9.313192531466484Q72.11977863311768 123.61370930075645 221.41494627296925 241.3881298750639ZM1009.078683257103 353.756682947278Q1009.3586767464876 386.6633707731962 1003.791993804276 409.95012126117945Q998.2253108620644 433.2368717491627 992.5986124575138 454.5837597697973Q986.9719140529633 475.930647790432 986.9719140529633 502.2111295610666Q987.2519075423479 534.5051171928644 1001.5123624578118 561.0457161515951Q1015.7728173732758 587.5863151103258 1041.9670165926218 603.173358567059Q1068.1612158119678 618.7604020237923 1103.68242675066 618.7604020237923Q1159.3373697847128 618.7604020237923 1192.3985164314508 581.7396752983332Q1225.459663078189 544.7189485728741 1225.1796695888042 469.35743978619576Q1224.619682610035 379.09120443463326 1186.4596305266023 291.84496745467186Q1148.2995784431696 204.59873047471046 1075.2193245366216 133.8057478889823Q1002.1390706300735 63.01276530325413 897.1584871336818 20.739654950797558Q792.17790363729 -21.533455401659012 657.670198559761 -21.533455401659012Q484.7875358015299 -21.533455401659012 367.7395694926381 46.880286462605Q250.69160318374634 115.29402832686901 201.3379581645131 240.88799561560154Q151.98431314527988 366.48196290433407 182.41122721135616 538.0826546400785Q203.7046614587307 659.2294531464577 257.2117195650935 761.1960953995585Q310.71877767145634 863.1627376526594 390.85281087458134 938.2759871631861Q470.98684407770634 1013.3892366737127 572.7212190777063 1054.6424829289317Q674.4555940777063 1095.8957291841507 791.7769759148359 1095.8957291841507Q888.3780908286572 1095.8957291841507 962.286019705236 1062.7356160655618Q1036.1939485818148 1029.5755029469728 1077.1481429189444 972.7753320485353Q1118.102337256074 915.9751611500978 1115.448859065771 845.1749902516603Q1113.008723974228 797.7475309371948 1095.7084025219083 769.4672363400459Q1078.4080810695887 741.186941742897 1038.3669368624687 737.4933528751135Q1001.7260612100363 733.8664713650942 955.6509773880243 712.4787687286735Q909.5758935660124 691.0910660922527 843.2129362076521 643.5419889390469Q860.7728499472141 682.7030826956034 870.9794604629278 722.5305257290602Q881.1860709786415 762.357968762517 883.4661865383387 804.3991211056709Q886.4930273592472 900.6129524856806 850.6002238094807 949.4060612097383Q814.7074202597141 998.1991699337959 741.5886181741953 998.1991699337959Q666.296713873744 998.1991699337959 598.3112451210618 941.3866162225604Q530.3257763683796 884.5740625113249 481.3131860345602 783.4217114374042Q432.3005957007408 682.2693603634834 412.847320958972 548.8032877743244Q389.3672135323286 388.962973639369 420.9269278869033 285.24960612505674Q452.48664224147797 181.53623861074448 527.8661840707064 131.3496427461505Q603.2457258999348 81.16304688155651 710.9250846207142 81.16304688155651Q771.6571972519159 81.16304688155651 825.3493823111057 102.51577637344599Q879.0415673702955 123.86850586533546 920.3939876183867 161.4008870497346Q961.746407866478 198.93326823413372 985.2725488170981 248.24548828601837Q1008.7986897677183 297.557708337903 1009.078683257103 353.756682947278Z" fill="#c4836f"/>
  </g>
</svg>
